<?xml version="1.0" encoding="UTF-8"?>
<svg xmlns="http://www.w3.org/2000/svg" xmlns:xlink="http://www.w3.org/1999/xlink" width="128px" height="128px" viewBox="0 0 128 128" version="1.1">
<g id="surface1">
<path style=" stroke:none;fill-rule:nonzero;fill:rgb(0%,0%,0%);fill-opacity:1;" d="M 57.75 0.273438 C 45.199219 1.648438 33.398438 6.5 23.875 14.175781 C 20.648438 16.773438 15.375 22.199219 13.050781 25.300781 C 6.425781 34.148438 2.199219 44.25 0.601562 55.125 C 0.0507812 58.800781 -0.125 65.824219 0.226562 69.5 C 1.273438 80.324219 4.726562 90.324219 10.351562 98.851562 C 20.699219 114.574219 36.523438 124.648438 55.125 127.398438 C 58.800781 127.949219 65.824219 128.125 69.5 127.773438 C 80.324219 126.726562 90.324219 123.273438 98.851562 117.648438 C 114.574219 107.300781 124.648438 91.476562 127.398438 72.875 C 127.949219 69.199219 128.125 62.175781 127.773438 58.5 C 126.5 45.398438 121.824219 33.800781 113.824219 23.875 C 111.226562 20.648438 105.800781 15.375 102.699219 13.050781 C 93.851562 6.425781 83.824219 2.25 72.875 0.601562 C 69.851562 0.148438 60.699219 -0.0507812 57.75 0.273438 Z M 80.476562 58.976562 C 89.148438 74.148438 96.25 86.601562 96.25 86.648438 C 96.25 86.699219 82.023438 86.75 64.625 86.75 C 47.226562 86.75 33 86.699219 33 86.625 C 33 86.425781 64.574219 31.226562 64.648438 31.324219 C 64.675781 31.351562 71.824219 43.800781 80.476562 58.976562 Z M 80.476562 58.976562 "/>
</g>
</svg>
